<svg xmlns="http://www.w3.org/2000/svg" viewBox="0 0 500 500"><g id="freepik--background-complete--inject-114"><path d="M439.26,72.41H412V60.47h27.23Zm-26.48-.75h25.73V61.22H412.78Z" style="fill:#ebebeb"></path><path d="M454,58.3H426.8V46.36H454Zm-26.48-.75h25.73V47.11H427.55Z" style="fill:#ebebeb"></path><path d="M287.78,192.93H260.55V181h27.23Zm-26.48-.75H287V181.74H261.3Z" style="fill:#ebebeb"></path><path d="M302.55,178.82H275.32V166.88h27.23Zm-26.48-.75H301.8V167.63H276.07Z" style="fill:#ebebeb"></path><path d="M317.27,192.93H290V181h27.23Zm-26.48-.75h25.73V181.74H290.79Z" style="fill:#ebebeb"></path><path d="M73.2,58.3H46V46.36H73.2Zm-26.48-.75H72.45V47.11H46.72Z" style="fill:#ebebeb"></path><path d="M88,321.41H60.74V309.47H88Zm-26.48-.75H87.22V310.22H61.49Z" style="fill:#ebebeb"></path><path d="M73.2,307.3H46V295.36H73.2Zm-26.48-.75H72.45V296.11H46.72Z" style="fill:#ebebeb"></path><path d="M439.26,321.41H412V309.47h27.23Zm-26.48-.75h25.73V310.22H412.78Z" style="fill:#ebebeb"></path><rect x="376.06" y="45.39" width="55.45" height="67.26" style="fill:#ebebeb"></rect><rect x="382.39" y="51.53" width="42.78" height="54.98" style="fill:#fff"></rect><rect x="382.39" y="51.53" width="1.67" height="54.98" style="fill:#c7c7c7"></rect><rect x="431.51" y="45.39" width="1.67" height="67.26" style="fill:#c7c7c7"></rect><rect x="404.74" y="64.24" width="10.09" height="30.05" transform="translate(819.56 158.54) rotate(180)" style="fill:#ebebeb"></rect><path d="M419.72,74.33H391.83V58.61h27.89Zm-26.89-1h25.89V59.61H392.83Z" style="fill:#ebebeb"></path><rect x="376.06" y="211.14" width="55.45" height="67.26" style="fill:#ebebeb"></rect><rect x="382.39" y="217.28" width="42.78" height="54.98" style="fill:#fff"></rect><rect x="382.39" y="217.28" width="1.67" height="54.98" style="fill:#c7c7c7"></rect><rect x="431.51" y="211.14" width="1.67" height="67.26" style="fill:#c7c7c7"></rect><rect x="396.73" y="229.99" width="10.09" height="30.05" style="fill:#ebebeb"></rect><path d="M419.72,240.08H391.83V224.36h27.89Zm-26.89-1h25.89V225.36H392.83Z" style="fill:#ebebeb"></path><rect x="376.06" y="128.57" width="55.45" height="67.26" style="fill:#ebebeb"></rect><rect x="382.39" y="134.71" width="42.78" height="54.98" style="fill:#fff"></rect><rect x="382.39" y="134.71" width="1.67" height="54.98" style="fill:#c7c7c7"></rect><rect x="431.51" y="128.57" width="1.67" height="67.26" style="fill:#c7c7c7"></rect><rect x="399.64" y="148.92" width="8.64" height="21.85" style="fill:#ebebeb"></rect><path d="M417.88,177.76H393.67V161.7h24.21Zm-23.21-1h22.21V162.7H394.67Z" style="fill:#dbdbdb"></path><rect x="52.6" y="45.39" width="132.49" height="202.1" transform="translate(237.68 292.89) rotate(180)" style="fill:#ebebeb"></rect><rect x="121.9" y="53.49" width="56" height="89.89" transform="translate(299.81 196.87) rotate(180)" style="fill:#fff"></rect><rect x="59.78" y="53.49" width="56" height="89.89" transform="translate(175.56 196.87) rotate(180)" style="fill:#fff"></rect><rect x="121.9" y="149.5" width="56" height="89.89" transform="translate(299.81 388.9) rotate(180)" style="fill:#fff"></rect><rect x="59.78" y="149.5" width="56" height="89.89" transform="translate(175.56 388.9) rotate(180)" style="fill:#fff"></rect><polygon points="103.71 45.39 52.6 45.39 52.6 334.53 82.18 334.53 61.53 187.4 103.71 45.39" style="fill:#dbdbdb"></polygon><polygon points="94.85 53.21 86.76 86.81 78.51 120.39 62.01 187.52 62.02 187.35 69.65 257.51 73.46 292.59 77.11 327.69 72.97 292.65 68.99 257.58 61.03 187.46 61.02 187.37 61.05 187.28 77.87 120.23 86.29 86.7 94.85 53.21" style="fill:#ebebeb"></polygon><polygon points="55.64 59.14 55.88 88.14 56.02 117.13 56.14 175.13 56.02 233.12 55.88 262.12 55.64 291.12 55.39 262.12 55.25 233.12 55.14 175.13 55.25 117.13 55.39 88.14 55.64 59.14" style="fill:#ebebeb"></polygon><path d="M65.19,64.57,63.61,95.39l-1.72,30.82-3.46,61.62v0c.34,11.45.56,22.89.84,34.34l.81,34.33.81,34.34.64,34.34-1.15-34.33-1-34.33-1-34.33c-.31-11.44-.69-22.89-.94-34.33v0l3.77-61.61,1.91-30.8Z" style="fill:#ebebeb"></path><path d="M71.84,320.69l-3.35-33.27-3.25-33.27C63.17,232,61,209.77,59,187.57v-.07l0-.06,9.48-51.81,4.81-25.9,4.88-25.88-4.47,26-4.54,25.94L60,187.61v-.13c2.12,22.19,4.08,44.39,6.12,66.59L69,287.38Z" style="fill:#ebebeb"></path><rect x="52.6" y="184.98" width="11.54" height="6.74" transform="translate(116.73 376.7) rotate(180)" style="fill:#dbdbdb"></rect><polygon points="133.86 45.39 184.97 45.39 184.97 334.53 155.38 334.53 176.03 187.4 133.86 45.39" style="fill:#dbdbdb"></polygon><polygon points="142.71 53.21 151.28 86.7 159.69 120.23 176.52 187.28 176.54 187.37 176.53 187.46 168.57 257.58 164.59 292.65 160.45 327.69 164.1 292.59 167.91 257.51 175.54 187.35 175.55 187.52 159.05 120.39 150.81 86.81 142.71 53.21" style="fill:#ebebeb"></polygon><polygon points="181.93 59.14 182.17 88.14 182.31 117.13 182.43 175.13 182.31 233.12 182.17 262.12 181.93 291.12 181.68 262.12 181.54 233.12 181.43 175.13 181.54 117.13 181.68 88.14 181.93 59.14" style="fill:#ebebeb"></polygon><path d="M172.38,64.57l2,30.8,1.9,30.8,3.78,61.61v0c-.25,11.44-.64,22.89-.95,34.33l-1,34.33-1,34.33L176,325.14l.65-34.34.8-34.34.81-34.33c.29-11.45.5-22.89.85-34.34v0l-3.47-61.62L174,95.39Z" style="fill:#ebebeb"></path><path d="M165.72,320.69l2.83-33.31,2.93-33.31c2.05-22.2,4-44.4,6.12-66.59v.13l-9.23-51.86-4.54-25.94-4.47-26,4.89,25.88,4.81,25.9,9.48,51.81v.13c-2,22.2-4.16,44.38-6.23,66.58l-3.25,33.27Z" style="fill:#ebebeb"></path><rect x="173.42" y="184.98" width="11.54" height="6.74" style="fill:#dbdbdb"></rect></g><g id="freepik--Shadow--inject-114"><ellipse cx="250" cy="429.93" rx="186.05" ry="20.77" style="fill:#ebebeb"></ellipse></g><g id="freepik--Plant--inject-114"><path d="M408.73,210.75s-21.41-3-16.41-28.85C392.32,181.9,416.25,187.27,408.73,210.75Z" style="fill:#407BFF"></path><path d="M408.73,210.75s-21.41-3-16.41-28.85C392.32,181.9,416.25,187.27,408.73,210.75Z" style="opacity:0.1"></path><path d="M407.65,205.35c-.42-1.3-.91-2.59-1.46-3.85,0-.16,0-.33-.05-.49,0-.35-.07-.71-.09-1.06-.06-.78-.11-1.55-.16-2.32-.09-1.54-.19-3.09-.21-4.64,0-.08-.13-.08-.13,0,0,1.55,0,3.09,0,4.64,0,.77.08,1.54.13,2.31l0,.52a44.85,44.85,0,0,0-4.29-7.34c-.74-1-1.51-2-2.34-3s-1.76-1.91-2.62-2.88c-.06-.06-.15,0-.09.1a38.73,38.73,0,0,1,4.13,5.48c.65,1,1.26,2,1.85,3l-.2-.08-.77-.31-1.74-.66-3.45-1.28c-.07,0-.11.09,0,.12,1.14.45,2.27.93,3.39,1.42l1.66.71.84.35a3,3,0,0,0,.57.2c.43.77.86,1.55,1.25,2.34a57.66,57.66,0,0,1,2.62,6.17l.15.45a12.8,12.8,0,0,0-1.75-.85l-2.22-1c-1.5-.69-3-1.39-4.43-2.2-.08,0-.14.07-.07.11,1.48.81,2.92,1.66,4.39,2.46.74.4,1.48.79,2.23,1.16a7.1,7.1,0,0,0,2,.8,25.38,25.38,0,0,1,1.41,6.07c.24,2.93.21,5.87.28,8.8,0,.06.07.05.08,0,.21-2.66.33-5.34.34-8A23.33,23.33,0,0,0,407.65,205.35Z" style="fill:#263238"></path><path d="M404.35,190.15a24.89,24.89,0,0,0-.21,4.56,0,0,0,0,0,.06,0c.09-1.51.1-3,.28-4.52C404.49,190.1,404.36,190.07,404.35,190.15Z" style="fill:#263238"></path><path d="M398.23,191.45a15.63,15.63,0,0,1-2.75-1.36c-.07,0-.14.07-.07.12a10.77,10.77,0,0,0,2.78,1.33C398.25,191.55,398.28,191.47,398.23,191.45Z" style="fill:#263238"></path><path d="M409.41,251.79c0-2.37-.06-4.74-.09-7.1,0-7.86-.1-15.72-.25-23.58q-.17-9.35-.43-18.71s0-.06-.06-.08c0-1.7,0-3.4,0-5.11,0,0-.05-.06-.1-.06s-.11,0-.11.07l0,5.12a.09.09,0,0,0-.05.07c-.31,11.1-.59,22.2-.66,33.31,0,2.26,0,4.51,0,6.77q-.12,10.86-.08,21.72c0,1.15,0,2.31,0,3.46,0,6.62.07,13.25.07,19.87,0,.36.4.54.82.55s1-.17,1-.58c0-7.3.05-14.61.05-21.91C409.43,261,409.45,256.39,409.41,251.79Z" style="fill:#263238"></path><path d="M400.47,244.6s-10.3-7.63-20.07-2.48-11.31,25-11.31,25,14.35,2.06,23.39-6.55C401.19,252.31,400.47,244.6,400.47,244.6Z" style="fill:#407BFF"></path><path d="M403.28,245.07a12.34,12.34,0,0,0-6-.78,8.81,8.81,0,0,0-1.26-.12l-1.45-.11c-1-.08-2-.14-3-.21-2-.16-4.07-.28-6.1-.48-.07,0-.09.12,0,.12,2,.26,4,.55,6,.75,1,.1,2.07.21,3.11.29.24,0,.5,0,.75.07-.3.07-.61.14-.91.23a24.43,24.43,0,0,0-4.67,1.89c-.81.15-1.61.37-2.41.56-1.27.3-2.54.63-3.81,1-2.5.66-5,1.4-7.46,2.12-.08,0,0,.14,0,.12,2.48-.61,5-1.16,7.46-1.75l3.62-.87.95-.22a30.19,30.19,0,0,0-7.32,6.36,40.06,40.06,0,0,0-5.09,8c0,.07.07.14.11.07A38.5,38.5,0,0,1,382,254c0,.13-.09.27-.14.41l-.57,1.82c-.38,1.21-.77,2.42-1.13,3.64,0,.08.1.11.13,0,.43-1.17.84-2.36,1.26-3.54l.61-1.74.31-.9.1-.28a34.67,34.67,0,0,1,3.65-3.11,27.18,27.18,0,0,1,5.47-3.13c0,.17-.07.35-.11.52l-.3,1.41c-.2,1-.39,1.95-.58,2.93-.39,2-.63,4-1,6a.06.06,0,0,0,.12,0c.46-2,1.06-4,1.51-6,.22-1,.45-2,.66-3,.09-.47.19-1,.28-1.42a6.88,6.88,0,0,0,.15-.79l.56-.23a16.24,16.24,0,0,1,8.56-1.17,8.42,8.42,0,0,1,6.2,5c.1.22.45.08.4-.15A8,8,0,0,0,403.28,245.07Z" style="fill:#263238"></path><path d="M387.51,253.56l-.87,3.91a31.17,31.17,0,0,0-.72,3.81c0,.05.07.05.09,0a29.62,29.62,0,0,0,.87-3.84c.26-1.29.51-2.57.76-3.86A.07.07,0,0,0,387.51,253.56Z" style="fill:#263238"></path><path d="M377.55,256.87c-1.31.67-2.58,1.42-3.95,2a.07.07,0,1,0,0,.12,40.59,40.59,0,0,0,3.93-2S377.59,256.86,377.55,256.87Z" style="fill:#263238"></path><path d="M402.79,230.58s-12.59.81-18.44-7.49-4.55-20.16-4.55-20.16,13.23,1.61,18.48,7.57S402.79,230.58,402.79,230.58Z" style="fill:#407BFF"></path><path d="M408.7,243c-.44-1.35-1-2.68-1.49-4s-1-2.52-1.57-3.77a77,77,0,0,0-3.77-7.41c-.89-1.53-1.84-3-2.82-4.48,0-.22-.06-.45-.1-.67-.06-.39-.11-.78-.17-1.17-.13-.8-.27-1.59-.4-2.39-.29-1.73-.65-3.46-.92-5.2,0-.08-.15-.08-.13,0,.25,1.72.42,3.45.66,5.17.12.84.23,1.69.36,2.53,0,.3.09.61.14.91a89.73,89.73,0,0,0-6.22-8.07l-.92-1c0-.1-.08-.19-.12-.29l-.27-.72c-.19-.5-.37-1-.55-1.5-.35-1-.67-2-.94-3,0-.08-.14,0-.12,0,.25,1,.52,2.07.82,3.09.15.49.31,1,.48,1.46l.09.24c-1.6-1.75-3.28-3.44-5-5.11a.06.06,0,0,0-.09.09,89.94,89.94,0,0,1,8.92,10.93,8,8,0,0,0-.93-.24c-1-.18-2-.32-2.93-.45-2.05-.26-4.09-.52-6.14-.84-.08,0-.11.11,0,.13,1.95.38,3.89.82,5.82,1.27.92.21,1.84.39,2.76.57a17.34,17.34,0,0,1,2.21.63c.2.29.41.57.61.87q1.38,2,2.68,4.1l-1.29-.25c-1-.19-1.94-.37-2.92-.53-1.92-.32-3.84-.65-5.74-1.08-.08,0-.11.11,0,.13,1.92.45,3.83,1,5.74,1.48.92.25,1.85.47,2.78.68l1.4.3a3.11,3.11,0,0,0,.57.1q2.76,4.47,5.16,9.15,1.05,2.06,2,4.14c.68,1.43,1.25,2.89,1.87,4.34C408.34,243.44,408.8,243.32,408.7,243Z" style="fill:#263238"></path><path d="M395.81,214.08c-.24-1.2-.49-2.4-.76-3.6,0-.08-.14,0-.12,0,.24,1.18.46,2.36.68,3.55a35.37,35.37,0,0,0,.71,3.52s0,0,0,0A24.41,24.41,0,0,0,395.81,214.08Z" style="fill:#263238"></path><path d="M388.47,213.73a19.27,19.27,0,0,0-1.81-.77l-1-.37-.49-.19a2.53,2.53,0,0,1-.53-.24c-.1-.07-.16.1-.06.11a3.07,3.07,0,0,1,.54.22l.47.22.92.41c.61.26,1.23.53,1.86.73C388.49,213.88,388.54,213.76,388.47,213.73Z" style="fill:#263238"></path><path d="M415.67,220.69s7.62-14.23,19.21-16.44S453.56,214,453.56,214s-8.45,10.8-19.09,12.68S415.67,220.69,415.67,220.69Z" style="fill:#407BFF"></path><path d="M442.65,210.63a31.47,31.47,0,0,0-9.09.11l.51-.28c.86-.43,1.72-.88,2.58-1.32a59.48,59.48,0,0,1,5.44-2.66c.08,0,0-.16-.06-.12-1.81.85-3.69,1.55-5.51,2.39-.91.42-1.8.85-2.69,1.32-.57.31-1.2.59-1.76,1a32.2,32.2,0,0,0-7.37,2.44l1.45-1.58c1.08-1.18,2.14-2.42,3.33-3.5.06,0,0-.14-.09-.09-1.22,1.1-2.5,2.12-3.67,3.27-.58.55-1.12,1.13-1.65,1.72-.27.3-.53.6-.79.92a30.53,30.53,0,0,0-15.53,21c0,.08.09.13.12,0a34.9,34.9,0,0,1,8.52-14.41,33.51,33.51,0,0,1,15.53-9,33.87,33.87,0,0,1,10.71-1A.12.12,0,0,0,442.65,210.63Z" style="fill:#263238"></path><path d="M453.56,214s-8.45,10.79-19.09,12.67c-8.11,1.44-14.78-2.79-17.49-4.87l-.59-1s5.49-4.63,15.87-7.3S453.56,214,453.56,214Z" style="opacity:0.1"></path><path d="M435.92,205.56a27.33,27.33,0,0,0-2.58,1.7,16.56,16.56,0,0,0-2.23,2c-.06.07,0,.15.1.1.77-.67,1.54-1.34,2.34-2a24.61,24.61,0,0,1,2.43-1.76C436.06,205.63,436,205.51,435.92,205.56Z" style="fill:#263238"></path><path d="M442.28,208c-.43.18-.87.33-1.3.51l-1.29.53c-.09,0-.05.19,0,.15l1.3-.52,1.28-.55C442.39,208.06,442.35,207.93,442.28,208Z" style="fill:#263238"></path><path d="M414.15,238.6s2,14.11,12.65,19,23.56,0,23.56,0S445.27,227.11,414.15,238.6Z" style="fill:#407BFF"></path><path d="M443,248.47c-1-.11-2-.28-2.92-.46-.47-.09-.95-.17-1.42-.27l-.75-.15-.86-.79a43.48,43.48,0,0,0-6.49-4.71,38.59,38.59,0,0,0-3.89-2h.2l3.49.15c2.33.11,4.66.16,7,.31.08,0,.08-.12,0-.13-2.34-.16-4.67-.41-7-.61l-3.39-.31-1.75-.15-.45-.05c-.61-.22-1.22-.44-1.83-.63a16.58,16.58,0,0,0-9-.49c-2.67.68-5.34,2.43-6,5.25,0,.09.13.16.17.06,1-2.35,3.61-3.53,6-4a14.39,14.39,0,0,1,4.81-.1,11.56,11.56,0,0,0,.54,2.14c.29,1,.58,2,.88,3,.6,2,1.26,3.94,1.85,5.93a.07.07,0,0,0,.13,0c-.5-2-.91-4-1.39-6-.23-1-.48-2-.72-2.92a17.68,17.68,0,0,0-.54-2,23.08,23.08,0,0,1,2.76.65,40.18,40.18,0,0,1,4.81,1.76c.15,1,.38,2,.61,3,.29,1.24.61,2.48,1,3.69a.06.06,0,0,0,.12,0l-.05-.23h0c-.24-1.15-.49-2.3-.74-3.45-.19-.93-.37-1.87-.58-2.8,1.32.6,2.62,1.24,3.87,2,0,.29.1.59.14.85.08.48.16,1,.25,1.45.2,1.09.42,2.17.68,3.25a50.89,50.89,0,0,0,1.83,6.14.05.05,0,0,0,0,.08l.06.07c0,.05.12,0,.1-.07-.49-2.09-1.05-4.16-1.51-6.26-.23-1.05-.46-2.1-.67-3.15l-.3-1.58c0-.15,0-.31-.07-.47a42.92,42.92,0,0,1,4.13,2.75,44.45,44.45,0,0,1,6.33,5.78c.07.08.22,0,.15-.13a39,39,0,0,0-2.53-3.08c-.53-.58-1.09-1.13-1.65-1.67l.18,0c.49.08,1,.16,1.49.22,1,.14,2,.23,2.95.34C443.09,248.6,443.13,248.48,443,248.47Z" style="fill:#263238"></path><path d="M435.58,253.25h0a2.25,2.25,0,0,0-.06-.36c0-.16-.1-.31-.13-.47h0c-.22-.94-.4-1.89-.57-2.85,0-.06-.12,0-.12,0a11.74,11.74,0,0,0,.81,3.69,0,0,0,0,0,.08,0Z" style="fill:#263238"></path><path d="M426.7,253a.06.06,0,0,0-.06-.06c-.3-1.25-.59-2.5-.85-3.76-.13-.66-.27-1.32-.4-2-.06-.36-.13-.71-.19-1.07a3.55,3.55,0,0,0-.23-.92.07.07,0,0,0-.12,0,6.12,6.12,0,0,0,.26,1.89q.19,1,.42,2.07c.31,1.39.66,2.78,1.05,4.15,0,.07.15.06.14,0S426.71,253.13,426.7,253Z" style="fill:#263238"></path><path d="M442.08,244.4c-1.94-.26-3.88-.55-5.82-.78-.08,0-.12.11,0,.13,1.93.28,3.87.52,5.81.78C442.13,244.54,442.16,244.41,442.08,244.4Z" style="fill:#263238"></path><path d="M408.71,205.49s-6.49-28.5,24.13-40C432.84,165.46,441.32,203,408.71,205.49Z" style="fill:#407BFF"></path><path d="M415.32,189.33l.33-.2,1.73-1,3.55-2c2.34-1.31,4.65-2.67,7-4,.07,0,0-.15-.07-.11-2.36,1.28-4.75,2.48-7.13,3.73l-3.51,1.86-1.43.76c1-1.94,2.11-3.84,3.31-5.67,1.6-2.44,3.36-4.76,5.18-7a.1.1,0,0,0-.15-.14,48.49,48.49,0,0,0-7.08,8.68c0-.1,0-.21,0-.3,0-.71.05-1.42.06-2.13,0-1.39,0-2.78,0-4.17a.07.07,0,0,0-.13,0c-.06,1.37-.22,2.74-.3,4.1,0,.69-.07,1.37-.09,2,0,.37-.05.79,0,1.2-.63,1-1.24,2-1.81,3a54,54,0,0,0-2.74,5.74c0-.71-.07-1.42-.11-2.13-.09-1.56-.28-3.11-.35-4.67a.07.07,0,0,0-.13,0c0,1.56,0,3.12,0,4.68,0,.78.05,1.56.1,2.34,0,.29,0,.58,0,.87a51.14,51.14,0,0,0-2.31,7.83,83.5,83.5,0,0,0-1.14,8.61,0,0,0,0,0,0,0,45.83,45.83,0,0,1,1.63-7.68c.37-1.34.77-2.68,1.2-4,1.28-.6,2.5-1.35,3.73-2s2.56-1.4,3.84-2.1c2.55-1.4,5.1-2.83,7.74-4.06.08,0,0-.15-.07-.12-2.67,1.21-5.36,2.36-8,3.68-1.3.66-2.59,1.36-3.86,2.07-1.06.6-2.15,1.2-3.17,1.89.3-.89.61-1.77.95-2.64A72.57,72.57,0,0,1,415.32,189.33Z" style="fill:#263238"></path><path d="M412.74,182.81c0-.08-.13-.08-.13,0,.11,1.62.17,3.25.34,4.87,0,.09.15.09.14,0C413,186.06,412.86,184.44,412.74,182.81Z" style="fill:#263238"></path><path d="M427.42,188.26c-1.92.77-3.85,1.5-5.76,2.3-.05,0,0,.11,0,.09,1.94-.73,3.84-1.52,5.77-2.27C427.54,188.35,427.5,188.22,427.42,188.26Z" style="fill:#263238"></path><path d="M430.33,175.11a50.75,50.75,0,0,0-5.44,2.92c-.09.06,0,.2.08.14,1.78-1,3.59-2,5.43-2.95C430.48,175.19,430.41,175.08,430.33,175.11Z" style="fill:#263238"></path><rect x="385.72" y="267.11" width="44.15" height="46.54" style="fill:#37474f"></rect><rect x="382.68" y="283.58" width="2.26" height="79.72" style="fill:#263238"></rect><rect x="430.41" y="283.58" width="2.26" height="79.72" style="fill:#263238"></rect><rect x="407.75" y="283.58" width="2.26" height="79.72" style="fill:#263238"></rect><rect x="383.81" y="310.67" width="47.73" height="6.44" style="fill:#263238"></rect></g><g id="freepik--Floor--inject-114"><polygon points="45.75 363.3 96.82 363.05 147.88 362.96 250 362.8 352.12 362.96 403.19 363.05 454.25 363.3 403.19 363.54 352.12 363.63 250 363.79 147.88 363.63 96.82 363.54 45.75 363.3" style="fill:#263238"></polygon></g><g id="freepik--character-2--inject-114"><path d="M88.78,421.88c2.73,1,83.63,2.59,86.68.73.35-.19,1.67-26.95,1.67-26.95-.1-.38,1.26-3,3.32-6.55,5.77-10.06,17-28.09,17-28.09l-48-14.52L129.75,386l-5,10.08s-11,4.31-20.65,8.61c0,0,0,0,0,0-5.93,2.63-11.08,5-12.28,5.95C88.67,413.06,86.05,420.92,88.78,421.88Z" style="fill: rgb(235, 148, 129);"></path><path d="M88.78,421.88c2.73,1,83.63,2.59,86.68.73.35-.19,1.67-26.95,1.67-26.95-.1-.38,1.26-3,3.32-6.55l-50.7-3.1-5,10.08s-11,4.31-20.65,8.61c0,0,0,0,0,0-5.93,2.63-11.08,5-12.28,5.95C88.67,413.06,86.05,420.92,88.78,421.88Z" style="fill:#fff"></path><path d="M88.44,422.19c2.81,1,83.82,2.38,86.94.48,1.19-.71,2.62-13.18,1.75-27l-52.23-.84s-30.25,13.37-33.45,15.82S85.63,421.19,88.44,422.19Z" style="fill:#407BFF"></path><path d="M154.19,423.59c11.53,0,20.21-.33,21.2-.91,1.18-.72,2.62-13.19,1.74-27l-1.27,0Z" style="opacity:0.1"></path><path d="M89.66,419c13.58-.1,68.38.77,81.82,1.7.11,0,.11.09,0,.09-13.46.39-68.26-.93-81.83-1.57C89.37,419.17,89.37,419,89.66,419Z" style="fill:#263238"></path><path d="M96.71,407.82a10.91,10.91,0,0,1,8.07,3.45,10.59,10.59,0,0,1,2.91,7.31c0,.08-.15.08-.16,0A12.62,12.62,0,0,0,96.71,408,.09.09,0,0,1,96.71,407.82Z" style="fill:#263238"></path><path d="M120.62,396.11c5.43,0,11.7,2.05,15,6.55.13.17-.12.35-.28.27a74.83,74.83,0,0,0-14.83-6.15A.34.34,0,0,1,120.62,396.11Z" style="fill:#263238"></path><path d="M116.39,397.68c5.44,0,11.71,2,15,6.54.13.18-.12.36-.28.27a75.43,75.43,0,0,0-14.83-6.15A.34.34,0,0,1,116.39,397.68Z" style="fill:#263238"></path><path d="M112.17,399.24c5.44,0,11.71,2,15,6.55.12.17-.13.35-.29.27a74.58,74.58,0,0,0-14.83-6.15A.34.34,0,0,1,112.17,399.24Z" style="fill:#263238"></path><path d="M108,400.8c5.43,0,11.7,2.05,15,6.55.13.18-.12.35-.28.27a74.83,74.83,0,0,0-14.83-6.15A.34.34,0,0,1,108,400.8Z" style="fill:#263238"></path><path d="M168.24,407.72c6.1.12,5.92,9.6-.19,9.47S162.13,407.6,168.24,407.72Z" style="fill:#263238"></path><path d="M115.29,389.48c2.87,3.84,7.3,6.3,11.12,9a.66.66,0,0,0,1-.42c.09,0,.18,0,.18-.16a28.58,28.58,0,0,0-4.7-14c-1.66-2.4-5.09-4.69-7.88-2.45C112.35,383.62,113.62,387.24,115.29,389.48Zm-.17-4.5c.64-5.91,5.89-1.27,7,.54a32.49,32.49,0,0,1,1.93,3.7,83.35,83.35,0,0,1,2.92,8.11c-1.79-1.46-3.7-2.76-5.55-4.16C119.26,391.51,114.76,388.23,115.12,385Z" style="fill:#263238"></path><path d="M146.93,394.81c-.37-3.56-4.4-4.39-7.27-3.89a28.53,28.53,0,0,0-13.27,6.46.15.15,0,0,0,0,.23.65.65,0,0,0,.39,1c4.63.81,9.49,2.24,14.24,1.59C143.81,399.81,147.27,398.17,146.93,394.81Zm-12.86,3.57c-2.29-.34-4.55-.79-6.85-1,2.59-1.25,5.12-2.61,7.83-3.6a31.15,31.15,0,0,1,4-1.23c2.1-.45,9.09,0,5.33,4.64C142.3,399.69,136.8,398.78,134.07,398.38Z" style="fill:#263238"></path><path d="M184.1,388.59l-57-8.63s27.38-54.57,44.33-84.19c9.42-16.46,35.2-17.27,47.74,2.46,16.75,26.35,29.75,51,37.2,64.74l12.92,1.11-2.79,21.11L223.6,394.8c-16.45,2-28-27.31-28.26-26.82C193.26,371.83,184.1,388.59,184.1,388.59Z" style="fill:#37474f"></path><path d="M195,368.11c1.62-3.32,2.88-6.84,4.32-10.24s2.8-6.57,4.18-9.86c2.79-6.66,5.69-13.28,8.4-20,1.52-3.75,2.91-7.56,4.33-11.35,0-.09.18-.05.15,0q-1.65,5.38-3.44,10.71c.32-.61.63-1.22,1-1.82.91-1.63,1.85-3.25,2.8-4.87,0-.06.13,0,.1.06-.88,1.63-1.75,3.25-2.66,4.85-.45.8-.94,1.59-1.42,2.38A250.92,250.92,0,0,1,201,357.23c-1.82,3.72-3.94,7.28-5.75,11C195.15,368.34,195,368.23,195,368.11Z" style="fill:#263238"></path><path d="M182.83,378.46c2.74-4.23,9.28-17.06,11.63-21.5,4.73-9,9.07-18.12,13.17-27.39,2.32-5.24,4.48-10.53,6.63-15.85,0,0,.07,0,.06,0a302.06,302.06,0,0,1-11.24,28.14c-4.18,9.21-17.65,34-20.08,36.69C182.91,378.67,182.76,378.57,182.83,378.46Z" style="fill:#263238"></path><path d="M218.19,320.81c4.91,8.76,9.92,17.47,14.85,26.22q3.74,6.63,7.45,13.29c1.16,2.08,2.28,4.2,3.49,6.26a11.75,11.75,0,0,0,4.5,4.67,34.92,34.92,0,0,0,7.14,2.49c2.77.81,5.52,1.69,8.31,2.45a.1.1,0,0,1-.06.2c-2.48-.67-5-1.24-7.48-1.85a63,63,0,0,1-6.79-1.84,11,11,0,0,1-5-3.47,40.21,40.21,0,0,1-3.52-5.89q-7.39-13.5-14.64-27.08c-2.75-5.14-5.47-10.3-8.26-15.43A0,0,0,0,1,218.19,320.81Z" style="fill:#263238"></path><path d="M185.39,380.6c-3.41-.62-6.9-.92-10.35-1.36l-10.35-1.34c-6.88-.9-30.31-4.64-32.08-5.22a.12.12,0,0,1,0-.22c1.67-.06,17,2,20.46,2.49,6.88,1,13.72,2.24,20.58,3.39,2,.33,3.91.71,5.87,1.05s3.9.77,5.87,1C185.55,380.43,185.51,380.62,185.39,380.6Z" style="fill:#263238"></path><path d="M151.24,439.75c.91-2.76,49.74-67.28,53.08-68.52.38-.17,22.21,15.37,22.21,15.37.9,1.2,42.39-7.57,42.39-7.57l.41,50.06-75.58-1.61s-10.21,6-19.55,10.89h0c-5.75,3-10.83,5.58-12.29,5.95C158.1,445.3,150.31,442.49,151.24,439.75Z" style="fill: rgb(235, 148, 129);"></path><path d="M161.88,444.33c1.46-.37,6.54-2.92,12.29-6,0,0,0,0,0,0,9.33-4.89,19.55-10.89,19.55-10.89l16.82.36,26.33-42.5c-5.78,1-10.09,1.64-10.38,1.26,0,0-21.82-15.54-22.2-15.37-3.34,1.24-52.17,65.76-53.08,68.52S158.1,445.31,161.88,444.33Z" style="fill:#fff"></path><path d="M150.79,439.83c1-2.82,50-67.3,53.44-68.58,1.29-.49,12,6.1,22.3,15.35l-31.68,41.53s-29.22,15.48-33.13,16.48S149.83,442.66,150.79,439.83Z" style="fill:#407BFF"></path><path d="M154.07,440.87c8.49-10.61,41.73-54.19,49.31-65.32.06-.09,0-.14-.07-.05-8.64,10.33-41.52,54.18-49.41,65.24C153.73,441,153.9,441.1,154.07,440.87Z" style="fill:#263238"></path><path d="M167.2,442.23a11,11,0,0,0,2.28-8.48,10.61,10.61,0,0,0-3.94-6.8c-.06-.05-.15.07-.1.13a12.61,12.61,0,0,1,1.62,15.05A.09.09,0,0,0,167.2,442.23Z" style="fill:#263238"></path><path d="M191.19,430.7c3.35-4.28,5.64-10.46,4.14-15.84-.05-.21-.35-.12-.38.06a75.08,75.08,0,0,1-4.35,15.45A.34.34,0,0,0,191.19,430.7Z" style="fill:#263238"></path><path d="M187.35,433.05c3.35-4.28,5.64-10.46,4.14-15.84-.06-.21-.35-.12-.38.06a75.71,75.71,0,0,1-4.35,15.45A.34.34,0,0,0,187.35,433.05Z" style="fill:#263238"></path><path d="M183.5,435.4c3.35-4.28,5.64-10.46,4.15-15.84-.06-.21-.35-.12-.39.06a74.46,74.46,0,0,1-4.35,15.45A.34.34,0,0,0,183.5,435.4Z" style="fill:#263238"></path><path d="M179.66,437.75c3.35-4.28,5.64-10.46,4.15-15.84-.06-.21-.36-.12-.39.06a75.08,75.08,0,0,1-4.35,15.45A.34.34,0,0,0,179.66,437.75Z" style="fill:#263238"></path><path d="M211.55,386.11c3.68-4.86-3.87-10.59-7.56-5.71S207.87,391,211.55,386.11Z" style="fill:#263238"></path><path d="M199.18,444.16c3.48-.81,3.8-4.92,2.94-7.7a28.49,28.49,0,0,0-8.07-12.35.14.14,0,0,0-.23,0,.66.66,0,0,0-.94.51c-.21,4.7-1,9.7.22,14.33C193.82,441.69,195.88,444.92,199.18,444.16ZM194,431.85c0-2.31.21-4.61.17-6.92a85.88,85.88,0,0,1,4.56,7.31,30,30,0,0,1,1.71,3.8c.72,2,1.1,9-3.93,5.88C193.75,440.18,194,434.61,194,431.85Z" style="fill:#263238"></path><path d="M200.62,412.14c-3.44,3.33-5.32,8-7.56,12.17a.65.65,0,0,0,.54.92.14.14,0,0,0,.17.15A28.44,28.44,0,0,0,207.05,419c2.17-1.94,4-5.63,1.45-8.12S202.63,410.2,200.62,412.14Zm4.45-.74c5.94-.1,2,5.69.35,7.06a30.78,30.78,0,0,1-3.43,2.37,85.31,85.31,0,0,1-7.68,3.92c1.23-2,2.27-4,3.43-6C199.11,416.33,201.8,411.46,205.07,411.4Z" style="fill:#263238"></path><path d="M247.23,367.47S330,352.93,353.61,357.7c32.86,6.67,38.89,45.52,14.52,60C337.26,436,212.9,432.49,212.9,432.49l29.7-50.34s45.69-9.61,87.12-8.22l-82.85,12.65Z" style="fill:#37474f"></path><path d="M240.63,385.4a2,2,0,0,0,.06-.26c0-.07,0-.14.05-.21s.08-.32.13-.48c.09-.34.22-.66.34-1s.27-.64.42-1a8.29,8.29,0,0,1,.56-.89s.05,0,.08-.05a.1.1,0,0,1,0,0l.07,0s.05,0,.08,0c5-.94,39.16-5.82,44.24-6.4S297,374,302.09,373.57a304.72,304.72,0,0,1,30.81-1.11l2.89.09a6.45,6.45,0,0,1,.63-.16c.49-.11,1-.24,1.48-.33.93-.18,1.86-.32,2.8-.46,1.94-.3,3.89-.5,5.82-.86a.09.09,0,0,1,.05.18c-1.94.43-3.86,1-5.8,1.42l-1.69.35c3.77.2,7.53.49,11.29.83.12,0,.13.2,0,.19-5.11-.3-10.27-.34-15.39-.25s-10.18.2-15.26.49c-10.28.59-20.55,1.51-30.79,2.58-5.74.6-40.55,5.68-46.32,5.92h-.08a3.12,3.12,0,0,1-.15.39c-.16.32-.32.63-.49.93s-.33.59-.52.87l-.28.42-.14.21a1.07,1.07,0,0,0-.15.22A.09.09,0,1,1,240.63,385.4Z" style="fill:#263238"></path><path d="M223.62,429.43c1.84-2.94,3.4-6.08,5.09-9.11s3.37-6.09,5.07-9.13c3.38-6.06,15.51-26.45,16.7-27.88a.12.12,0,0,1,.2.12c-.57,1.58-8.14,15.08-9.89,18.09-3.48,6-7.14,11.92-10.75,17.87-1,1.7-2.1,3.37-3.15,5.06s-2.15,3.35-3.11,5.08C223.72,429.63,223.55,429.53,223.62,429.43Z" style="fill:#263238"></path><path d="M250.83,388.39c3-.73,6.13-1.21,9.2-1.79l9.21-1.72q9.22-1.71,18.46-3.28c12.3-2.07,24.64-3.78,37.05-5,7-.68,14-1.12,21.05-1.63.15,0,.14.22,0,.23-12.5.56-25,2.26-37.36,4S284,383,271.74,385q-5.17.87-10.34,1.77c-3.5.6-7,1.35-10.52,1.8C250.75,388.61,250.69,388.42,250.83,388.39Z" style="fill:#263238"></path><path d="M202.22,204.45s5.41,2,5.82-.56-1.63-9.44-1.63-9.44,4.64,11.19,6.77,10.47a18.37,18.37,0,0,0,4.91-3.27s-3.39,4.09-1.34,5.61a13.9,13.9,0,0,0,4.22,2.1s-4.85-.33-5.48,1.29,1.36,7.26,1.36,7.26-4-6.19-4.88-6.06-2,3.33-2,3.33.17-3.46-1.33-4.08-4.64.08-4.64.08,3.3-1.83,2.57-3.28S202.22,204.45,202.22,204.45Z" style="fill:#fff"></path><path d="M211.43,210.22l-11.36,37.11c-.23,1.15-1.17,1.63-2.09,1.07l-16.62-10.05a3.13,3.13,0,0,1-1.27-3.1l11.36-37.11c.23-1.15,1.16-1.63,2.09-1.07l16.62,10.05A3.13,3.13,0,0,1,211.43,210.22Z" style="fill:#37474f"></path><path d="M209.47,209l-11.36,37.11a1.35,1.35,0,0,1-2.1,1.07L179.4,237.14a3.13,3.13,0,0,1-1.27-3.1l11.36-37.11a1.34,1.34,0,0,1,2.09-1.07l16.62,10A3.16,3.16,0,0,1,209.47,209Z" style="fill:#455a64"></path><path d="M204,207.73a1.65,1.65,0,1,0,2.25-.61A1.65,1.65,0,0,0,204,207.73Z" style="fill:#263238"></path><path d="M262.93,290.15c-23.37,11.06-61.55,16.55-70.5,11.8-4.29-2.28-35-44.89-28.35-56.69,2.36-4.19,30-1,31.85,3.81,3.25,8.64,16.86,24.66,17.71,25.79s27.35.95,46,1.72C281.57,277.49,272.24,285.75,262.93,290.15Z" style="fill: rgb(235, 148, 129);"></path><path d="M169.2,224.63c4.92-8.63,7.51-10.09,7.79-19.58.18-6.23,4.24-8.78,7.08-3,4.64,9.52.64,22-2,25.91Z" style="fill: rgb(235, 148, 129);"></path><path d="M163.44,252.7S162,239.82,167,228.89c3.07-6.69,11.14-20.61,32.95-23.1,5.18-.59,13,2.24,4.87,6.27-5.76,2.87-10.27,2.95-13.31,5.22,0,0,9.48,4.77,9.87,10a97.08,97.08,0,0,1,.05,13.68,20.41,20.41,0,0,1-2.56.23s.21,4.89-4.87,10.33Z" style="fill: rgb(235, 148, 129);"></path><path d="M170.85,222.93c3.5-1.62,11-4.93,18-5.51,7.83-.64,23.1.22,23.51,6,.31,4.24-5.55,4.43-5.55,4.43s6.24,1.68,5.67,5.58c-.51,3.55-5,3.42-5,3.42s3.61,1.67,2.46,5c-1.39,4-8.72-.16-13.62,2.67C195.2,245.16,170.85,222.93,170.85,222.93Z" style="fill: rgb(235, 148, 129);"></path><path d="M188.18,225.81a31.37,31.37,0,0,1,18.57,1.91c.15.07.17.22,0,.18a76.86,76.86,0,0,0-18.6-2S188.14,225.82,188.18,225.81Z" style="fill:#263238"></path><path d="M189.06,233.7c3.14-.53,12-.32,18.43,3,.14.08.16.23,0,.19a82.17,82.17,0,0,0-18.44-3.12S189,233.71,189.06,233.7Z" style="fill:#263238"></path><path d="M235.47,301l-15.93-27.29s32.35.14,45.77,2.68c14,2.65,16,7.58-1.52,14.58S235.47,301,235.47,301Z" style="fill:#407BFF"></path><path d="M222.89,274.51a1.73,1.73,0,0,1-.67.44,1.45,1.45,0,0,1-1.39-.25,1.84,1.84,0,0,0-1-.38l.64,1.09a1.89,1.89,0,0,0,2,.08,1.84,1.84,0,0,0,.72-.75c.14-.28.3-.55.43-.85C223.36,274.08,223.14,274.3,222.89,274.51Zm30.39,15.69a1.66,1.66,0,0,1-.68.44,1.45,1.45,0,0,1-1.39-.25,1.89,1.89,0,0,0-2.12-.11,1.78,1.78,0,0,0-.69.76c-.15.29-.31.55-.43.85.26-.19.48-.41.72-.62a1.76,1.76,0,0,1,.67-.46,1.43,1.43,0,0,1,1.39.19,1.9,1.9,0,0,0,2.1.19,1.75,1.75,0,0,0,.72-.76c.15-.28.31-.55.43-.84C253.74,289.78,253.52,290,253.28,290.2Zm-19.09-8.36c-.1-.3-.17-.61-.3-.9,0,.31,0,.63-.07.94a1.86,1.86,0,0,1-.15.81,1.42,1.42,0,0,1-1.12.84,1.89,1.89,0,0,0-1.61,1.36,1.83,1.83,0,0,0,0,1c.1.3.17.6.29.9.05-.32.05-.63.08-.94a1.62,1.62,0,0,1,.17-.79,1.45,1.45,0,0,1,1.16-.81,1.91,1.91,0,0,0,1.58-1.42A1.87,1.87,0,0,0,234.19,281.84Zm31.58-5.32-.46-.09h0a1.6,1.6,0,0,1-.12.37,1.44,1.44,0,0,1-1.12.85,1.91,1.91,0,0,0-1.62,1.36,1.75,1.75,0,0,0,0,1c.1.3.17.6.29.9.05-.32.05-.63.08-.95a1.67,1.67,0,0,1,.17-.79,1.41,1.41,0,0,1,1.16-.8,1.91,1.91,0,0,0,1.58-1.42A1.2,1.2,0,0,0,265.77,276.52ZM248.14,278a1.8,1.8,0,0,1-.79-.16,1.46,1.46,0,0,1-.8-1.16,1.91,1.91,0,0,0-1.42-1.59,2,2,0,0,0-1,.06c-.3.1-.61.17-.9.29.31.05.62.05.94.08a1.79,1.79,0,0,1,.8.14,1.42,1.42,0,0,1,.85,1.12,1.9,1.9,0,0,0,1.36,1.62,1.83,1.83,0,0,0,1,0c.3-.1.6-.18.9-.3C248.77,278,248.46,278,248.14,278Z" style="fill:#fff"></path><path d="M239.1,296.45c-.31-.69-.71-1.34-1.08-2l-1.12-2c-.76-1.38-1.54-2.74-2.33-4.11-1.58-2.72-3.14-5.44-4.77-8.14-.44-.74-.89-1.48-1.36-2.2s-1-1.5-1.52-2.27c0,0-.09,0-.07.05.37.69.69,1.4,1.05,2.09s.76,1.41,1.16,2.1c.78,1.37,1.56,2.73,2.36,4.09,1.57,2.66,3.14,5.34,4.77,8,.45.74.91,1.47,1.37,2.2s.92,1.58,1.46,2.3C239.05,296.53,239.12,296.5,239.1,296.45Z" style="fill:#263238"></path><path d="M263.79,291c-17.6,7.05-28.32,10-28.32,10l-7.06-12.1,47.37-8.32C277.84,283.29,274.4,286.77,263.79,291Z" style="opacity:0.1"></path><path d="M234.42,346.67c.33.44,6.53,19.19,16.33,22.15,22.12,6.68,58.61.3,58.92,0,1.24-1.2-9.51-65.06-21.75-86.36-4.13-7.18-18.63-9.57-24.18-3.24C247.83,297.37,233.51,345.4,234.42,346.67Z" style="fill:#407BFF"></path><path d="M278,366.82a1.62,1.62,0,0,1-.68.44A1.45,1.45,0,0,1,276,367a1.88,1.88,0,0,0-2.82.65c-.14.29-.3.55-.43.85.26-.19.49-.41.73-.61a1.68,1.68,0,0,1,.67-.47,1.41,1.41,0,0,1,1.38.19,1.92,1.92,0,0,0,2.11.19,1.81,1.81,0,0,0,.72-.76c.14-.28.3-.55.43-.84C278.49,366.4,278.27,366.62,278,366.82Zm12.46-26a1.68,1.68,0,0,1-.68.45,1.47,1.47,0,0,1-1.39-.25,1.89,1.89,0,0,0-2.12-.12,1.86,1.86,0,0,0-.69.77c-.15.28-.31.55-.43.84.26-.19.48-.41.72-.61a1.79,1.79,0,0,1,.67-.47,1.43,1.43,0,0,1,1.39.2,1.92,1.92,0,0,0,2.1.18,1.78,1.78,0,0,0,.72-.75,8.46,8.46,0,0,0,.43-.85C291,340.39,290.73,340.61,290.49,340.81ZM251,349a1.63,1.63,0,0,1-.67.44,1.45,1.45,0,0,1-1.39-.25,1.93,1.93,0,0,0-2.13-.12,2,2,0,0,0-.69.77c-.14.28-.3.55-.43.85.26-.19.48-.41.73-.62a1.76,1.76,0,0,1,.67-.46,1.41,1.41,0,0,1,1.38.19,1.92,1.92,0,0,0,2.11.18,1.73,1.73,0,0,0,.72-.75c.14-.28.3-.55.43-.84C251.42,348.53,251.2,348.75,251,349Zm12.94-35.23a1.59,1.59,0,0,1-.67.44,1.47,1.47,0,0,1-1.4-.25,1.89,1.89,0,0,0-2.12-.11,1.85,1.85,0,0,0-.69.76c-.14.29-.3.55-.43.85.26-.19.48-.41.72-.61a1.68,1.68,0,0,1,.67-.47,1.43,1.43,0,0,1,1.39.19,1.91,1.91,0,0,0,2.11.19,1.87,1.87,0,0,0,.72-.76c.14-.28.3-.54.42-.84C264.35,313.31,264.13,313.53,263.89,313.73Zm15.49-26a1.62,1.62,0,0,1-.68.44,1.42,1.42,0,0,1-1.39-.25,1.89,1.89,0,0,0-2.12-.11,1.84,1.84,0,0,0-.7.77c-.14.28-.3.54-.43.84.26-.19.49-.41.73-.61a1.68,1.68,0,0,1,.67-.47,1.41,1.41,0,0,1,1.38.19,1.92,1.92,0,0,0,2.11.19,1.84,1.84,0,0,0,.72-.75c.14-.29.3-.55.43-.85C279.84,287.29,279.62,287.51,279.38,287.71ZM257.29,364.9c-.1-.3-.17-.61-.3-.9-.05.31-.05.63-.07.94a1.79,1.79,0,0,1-.15.8,1.42,1.42,0,0,1-1.11.85A1.9,1.9,0,0,0,254,368a1.83,1.83,0,0,0,0,1c.09.26.15.51.25.77h.05c0-.28,0-.55.07-.83a1.67,1.67,0,0,1,.17-.79,1.46,1.46,0,0,1,1.16-.8,1.91,1.91,0,0,0,1.58-1.42A1.87,1.87,0,0,0,257.29,364.9Zm-7.12-60.1c-.09-.3-.17-.6-.29-.9,0,.32,0,.63-.08.94a1.7,1.7,0,0,1-.14.81,1.42,1.42,0,0,1-1.12.84,1.71,1.71,0,0,0-.65.21h0c-.32.73-.63,1.46-.94,2.19.1.3.18.61.3.9,0-.31,0-.63.08-.94a1.74,1.74,0,0,1,.16-.79,1.47,1.47,0,0,1,1.17-.81,1.89,1.89,0,0,0,1.58-1.42A1.87,1.87,0,0,0,250.17,304.8Zm36.15,1.85c-.1-.3-.18-.6-.3-.9,0,.32,0,.63-.08.95a1.66,1.66,0,0,1-.14.8,1.44,1.44,0,0,1-1.12.85,1.91,1.91,0,0,0-1.62,1.36,1.75,1.75,0,0,0,0,1c.1.3.17.6.29.9.05-.32.05-.63.08-.95a1.67,1.67,0,0,1,.17-.79,1.41,1.41,0,0,1,1.16-.8,1.91,1.91,0,0,0,1.58-1.42A2,2,0,0,0,286.32,306.65Zm22.07,60.6c-.1-.3-.17-.6-.29-.9-.05.32-.05.63-.08.95a1.94,1.94,0,0,1-.14.8,1.47,1.47,0,0,1-1.12.85,1.9,1.9,0,0,0-1.21.62l2.38-.39a1.82,1.82,0,0,0,.51-.89A1.9,1.9,0,0,0,308.39,367.25Zm-16.3-75.87A1.86,1.86,0,0,0,291,292.6a1.83,1.83,0,0,0,0,1c.1.3.17.6.29.9.05-.32.05-.63.08-1a1.67,1.67,0,0,1,.17-.79,1.44,1.44,0,0,1,.79-.71C292.27,291.85,292.18,291.61,292.09,291.38Zm-26.6,40.13c-.09-.3-.17-.6-.29-.9-.05.32-.05.63-.08.94a1.73,1.73,0,0,1-.14.81,1.42,1.42,0,0,1-1.12.84,1.93,1.93,0,0,0-1.62,1.36,1.74,1.74,0,0,0,0,1c.1.3.17.6.29.9.05-.32.05-.63.08-.94a1.62,1.62,0,0,1,.17-.79A1.44,1.44,0,0,1,264,334a1.89,1.89,0,0,0,1.58-1.42A1.87,1.87,0,0,0,265.49,331.51Zm-2.88-50.95c0,.13.08.25.13.38,0-.2,0-.4.06-.61ZM299.79,316a1.78,1.78,0,0,0-1.2.2,1.84,1.84,0,0,0-.72.75c-.14.29-.3.55-.43.85.26-.19.48-.41.73-.61a1.65,1.65,0,0,1,.67-.45,1.48,1.48,0,0,1,1.17.11C299.93,316.56,299.86,316.28,299.79,316Zm4.68,20.09-.06,0h.07Zm-22.54-10.39a1.8,1.8,0,0,1-.79-.16,1.47,1.47,0,0,1-.81-1.16,1.84,1.84,0,0,0-2.45-1.53c-.3.1-.6.17-.9.29.32.05.63.05.95.08a1.66,1.66,0,0,1,.8.14,1.42,1.42,0,0,1,.84,1.12,1.92,1.92,0,0,0,1.37,1.62,1.83,1.83,0,0,0,1,0c.3-.1.6-.18.9-.3C282.56,325.72,282.25,325.72,281.93,325.69Zm-12.27,26.88a1.81,1.81,0,0,1-.8-.16,1.48,1.48,0,0,1-.8-1.16,1.91,1.91,0,0,0-1.42-1.59,2,2,0,0,0-1,.06c-.3.1-.61.17-.9.29.31.05.63.05.94.08a1.86,1.86,0,0,1,.81.14,1.42,1.42,0,0,1,.84,1.12,1.9,1.9,0,0,0,1.36,1.62,1.83,1.83,0,0,0,1,0c.3-.1.6-.18.9-.3C270.28,352.6,270,352.6,269.66,352.57ZM248.14,329a1.67,1.67,0,0,1-.79-.17,1.44,1.44,0,0,1-.8-1.16,1.91,1.91,0,0,0-1.42-1.58,1.86,1.86,0,0,0-1,0c-.3.1-.61.17-.9.3.31.05.62.05.94.07a1.79,1.79,0,0,1,.8.15,1.42,1.42,0,0,1,.85,1.11,1.9,1.9,0,0,0,1.36,1.62,1.83,1.83,0,0,0,1,0c.3-.1.6-.17.9-.3C248.77,329,248.46,329,248.14,329Zm45.36,30.54a1.74,1.74,0,0,1-.79-.17,1.47,1.47,0,0,1-.81-1.16,1.89,1.89,0,0,0-1.42-1.58,1.87,1.87,0,0,0-1,.05c-.3.1-.6.17-.9.29.32.05.63.05.94.08a2,2,0,0,1,.81.14,1.46,1.46,0,0,1,.84,1.12,1.91,1.91,0,0,0,1.36,1.62,1.83,1.83,0,0,0,1,0c.3-.1.61-.17.9-.3C294.12,359.51,293.81,359.51,293.5,359.49ZM270,302.29a1.67,1.67,0,0,1-.79-.17,1.46,1.46,0,0,1-.8-1.16,1.91,1.91,0,0,0-1.42-1.58,1.87,1.87,0,0,0-1,.05c-.3.1-.61.17-.9.3.31,0,.63,0,.94.07a1.86,1.86,0,0,1,.81.15,1.43,1.43,0,0,1,.84,1.11,1.9,1.9,0,0,0,1.36,1.62,1.83,1.83,0,0,0,1,0c.3-.1.6-.17.9-.3C270.66,302.31,270.35,302.31,270,302.29Z" style="fill:#fff"></path><path d="M300.27,294.69c20.59,28.55,60,85.73,64.85,95.86,3.28,6.88-32.89,25.59-34.41,20.59-2-6.41-36.07-81-43.61-113.9C283.29,280.59,293.59,285.43,300.27,294.69Z" style="fill: rgb(235, 148, 129);"></path><path d="M329.74,407.68c.83,6.24,5.07,18.79,8.22,20.71s19.7,1.5,28,1.5,10-2.32,9.84-5.19-17.64-3.42-17.64-3.42,23.38,6.7,29.26,7.79,19.42,4.51,21.38-.36c.88-2.2-2.83-4.42-2.83-4.42s5.69,1.66,6.59-1.17c1-3.22-3.49-5-3.49-5s3.55.72,3.64-1.9c.18-5.86-22.05-8.73-22.05-8.73s17,8.28,17.57,3.5c.75-6.61-34.13-13.87-37.76-16.75a68.83,68.83,0,0,1-7.39-7.18Z" style="fill: rgb(235, 148, 129);"></path><path d="M375.72,426.15a2.57,2.57,0,0,0-.79-2.23,7.37,7.37,0,0,0-2-1.32,27.82,27.82,0,0,0-4.78-1.55c-3.28-.83-6.65-1.42-10-2.29a40.65,40.65,0,0,1,10.3,1.16,18.78,18.78,0,0,1,4.92,1.88,6.63,6.63,0,0,1,2.05,1.76A2.68,2.68,0,0,1,375.72,426.15Z" style="fill:#263238"></path><path d="M406,424.29c-2.4-.59-4.77-1.27-7.14-2s-4.72-1.41-7.07-2.12l-7-2.21c-2.35-.73-4.69-1.46-7.07-2.17a56.5,56.5,0,0,1,7.31,1.3c2.41.55,4.78,1.24,7.14,2s4.7,1.51,7,2.39S403.77,423.24,406,424.29Z" style="fill:#263238"></path><path d="M383.34,410a47.71,47.71,0,0,1,6.74.93,65.18,65.18,0,0,1,6.6,1.7,58.28,58.28,0,0,1,6.38,2.39,47.3,47.3,0,0,1,6.05,3.11c-2.15-.74-4.24-1.56-6.38-2.27s-4.25-1.45-6.4-2.11-4.3-1.31-6.46-1.94S385.53,410.6,383.34,410Z" style="fill:#263238"></path><path d="M386.78,404.42a45.33,45.33,0,0,1,20.6,7.05c-3.45-1.23-6.81-2.53-10.25-3.67S390.26,405.55,386.78,404.42Z" style="fill:#263238"></path><path d="M295.1,325.35l31.24-4.78s-20.46-25.06-30.88-33.89c-10.86-9.2-15.94-7.65-10.38,10.35S295.1,325.35,295.1,325.35Z" style="fill:#407BFF"></path><path d="M320.57,314.59c-.1-.3-.17-.6-.3-.9,0,.32,0,.63-.07.95a1.79,1.79,0,0,1-.15.8,1.43,1.43,0,0,1-1.11.84,1.92,1.92,0,0,0-1.62,1.37,1.83,1.83,0,0,0,0,1c.1.3.17.6.29.9a7.61,7.61,0,0,0,.08-.95,1.67,1.67,0,0,1,.17-.79A1.45,1.45,0,0,1,319,317a1.88,1.88,0,0,0,1.58-1.41A1.9,1.9,0,0,0,320.57,314.59Zm-26.3-25c-.1-.3-.17-.61-.3-.9-.05.31-.05.62-.07.94a1.79,1.79,0,0,1-.15.8,1.42,1.42,0,0,1-1.12.85A1.89,1.89,0,0,0,291,292.6a1.83,1.83,0,0,0,0,1c.1.3.17.6.29.9.05-.32.05-.63.08-1a1.67,1.67,0,0,1,.17-.79,1.44,1.44,0,0,1,1.16-.8,1.91,1.91,0,0,0,1.58-1.42A1.86,1.86,0,0,0,294.27,289.55Zm8.48,26.55a1.79,1.79,0,0,1-.67.47,1.41,1.41,0,0,1-1.38-.19,1.92,1.92,0,0,0-2.11-.19,1.84,1.84,0,0,0-.72.75c-.14.29-.3.55-.43.85.26-.19.48-.41.73-.61a1.65,1.65,0,0,1,.67-.45,1.45,1.45,0,0,1,1.39.26,1.91,1.91,0,0,0,2.13.11,1.94,1.94,0,0,0,.69-.77c.14-.28.3-.54.43-.84C303.22,315.68,303,315.9,302.75,316.1Zm5.12-12.1a1.62,1.62,0,0,1-.79-.17,1.45,1.45,0,0,1-.81-1.16,1.91,1.91,0,0,0-1.42-1.58,1.87,1.87,0,0,0-1,.05c-.3.1-.6.17-.9.3.32.05.63.05.94.07a1.86,1.86,0,0,1,.81.15,1.43,1.43,0,0,1,.84,1.11,1.9,1.9,0,0,0,1.36,1.62,1.83,1.83,0,0,0,1,0c.3-.1.6-.17.9-.29C308.49,304,308.18,304,307.87,304Z" style="fill:#fff"></path><path d="M296.39,319.65c.73-.2,1.49-.29,2.23-.43l2.29-.4c1.55-.28,3.11-.53,4.66-.78,3.11-.48,6.21-1,9.33-1.41.85-.12,1.71-.24,2.57-.34s1.81-.14,2.71-.24c.06,0,.06.08,0,.09-.76.14-1.52.35-2.29.49s-1.57.3-2.36.43c-1.55.25-3.1.5-4.66.73-3.06.46-6.12.93-9.19,1.32l-2.57.32c-.9.11-1.81.27-2.72.31A0,0,0,0,1,296.39,319.65Z" style="fill:#263238"></path><path d="M286.48,305.73c0-.06.06-.11.1-.06a25.82,25.82,0,0,1,1.9,3.15c-.18-.53-.37-1.06-.54-1.6-.57-1.73-1.1-3.46-1.67-5.18a.05.05,0,0,1,.1,0c1.19,2.93,2.51,5.83,3.61,8.8s2.21,5.95,3.27,8.94c.59,1.64,1.18,3.73,1.76,5.38.92,0,2.08-.23,3.07-.26.09,0,.08.14,0,.15-1,.16-2.23.55-3.32.62-.14,0-4.14-10.58-5.88-15.67Q287.61,307.88,286.48,305.73Z" style="fill:#263238"></path><path d="M267.85,289.73c4.15,1.91,13-3.22,17-8,.27-.33.5-4.34,1-9.2.32-2.95.75-6.23,1.35-9.19.13-.61-19.5.73-19.5.73a48.35,48.35,0,0,1-.52,11.74,6.64,6.64,0,0,1-.37,1.19c0,.06,0,.12-.07.2C265.92,279.41,263.85,287.87,267.85,289.73Z" style="fill: rgb(235, 148, 129);"></path><path d="M286.07,263.16c-1.88,4.84-7.46,16.3-17.42,14.51a10.5,10.5,0,0,1-1.88-.49.93.93,0,0,1,.07-.2,7.77,7.77,0,0,0,.38-1.18,48.18,48.18,0,0,0,.51-11.75S281.89,263.08,286.07,263.16Z" style="fill:#263238"></path><path d="M294.67,244.69c-.13,7-9.51,24.4-15.39,27-8.54,3.83-19.52.9-22-8.68-2.42-9.28,10.2-31.71,16.5-33.8C283,226.17,294.85,234.3,294.67,244.69Z" style="fill: rgb(235, 148, 129);"></path><path d="M294.67,244.69c-.13,7-9.51,24.4-15.39,27-8.54,3.83-19.52.9-22-8.68-2.42-9.28,10.2-31.71,16.5-33.8C283,226.17,294.85,234.3,294.67,244.69Z" style="fill: rgb(235, 148, 129);"></path><path d="M272.56,250.24s.06.11,0,.16c-.67,1.15-1.23,2.58-.38,3.54,0,0,0,.08,0,.06C271,253.12,271.75,251.23,272.56,250.24Z" style="fill:#263238"></path><path d="M274.26,249.58c2,.86.1,4.72-1.72,3.92S272.62,248.85,274.26,249.58Z" style="fill:#263238"></path><path d="M277.6,247c-.52-.3-1-.67-1.44-1s-1-.65-1.27-1.31a.9.9,0,0,1,.44-1,2.25,2.25,0,0,1,2.24.39A3.29,3.29,0,0,1,279,246,1,1,0,0,1,277.6,247Z" style="fill:#263238"></path><path d="M264.7,242.79a17.05,17.05,0,0,0,1.73.34,2.8,2.8,0,0,0,1.83,0,.9.9,0,0,0,.43-1,2.24,2.24,0,0,0-1.83-1.36,3.3,3.3,0,0,0-2.37.26A1,1,0,0,0,264.7,242.79Z" style="fill:#263238"></path><path d="M269.18,262.33a2,2,0,0,1-1.35.22,3.41,3.41,0,0,1-1.14-.93,0,0,0,0,0-.08,0,1.79,1.79,0,0,0,1.2,1.39,1.41,1.41,0,0,0,1.45-.61C269.32,262.38,269.24,262.31,269.18,262.33Z" style="fill:#263238"></path><path d="M269.65,258.14a4.5,4.5,0,0,1-3.6.5,5.49,5.49,0,0,1-1.49-.65,1.2,1.2,0,0,1-.27-.16c-.08-.06-.16-.1-.24-.17a.34.34,0,0,1-.11-.39h0a.47.47,0,0,1,.07-.12h0l.05-.1c.42-.94,1.19-2.3,1.19-2.3-.42,0-2.51-.05-2.25-.52a68.82,68.82,0,0,1,7.55-11.57.13.13,0,0,1,.21.14c-1.94,3.8-4.53,7.24-6.54,11a7.82,7.82,0,0,1,2.21.34c.11.11-1.53,2.6-1.69,3a.12.12,0,0,0,0,.05,6.31,6.31,0,0,0,4.85.73C269.71,258,269.77,258.08,269.65,258.14Z" style="fill:#263238"></path><path d="M265.33,257.79a5.39,5.39,0,0,0,1.2,2.44,2.4,2.4,0,0,0,1.29.72c1.07.21,1.52-.65,1.71-1.49a5.68,5.68,0,0,0,.13-1.36A6.89,6.89,0,0,1,265.33,257.79Z" style="fill:#263238"></path><path d="M266.53,260.23a2.4,2.4,0,0,0,1.29.72c1.07.21,1.52-.65,1.71-1.49A2.5,2.5,0,0,0,266.53,260.23Z" style="fill:#ff97b8"></path><path d="M262.29,245.73a3.6,3.6,0,0,1,1,.19,3.69,3.69,0,0,1,.95.48,2.94,2.94,0,0,1,.77.8,2.51,2.51,0,0,1,.36,1.1l.07.7-.62-.34a7.11,7.11,0,0,0-1.38-.6,3.18,3.18,0,0,0-1.54-.11,2.29,2.29,0,0,1,1.63-.43,4.42,4.42,0,0,1,1.66.49l-.56.36a2.46,2.46,0,0,0-.79-1.49A7.85,7.85,0,0,0,262.29,245.73Z" style="fill:#263238"></path><path d="M263,249.1a6,6,0,0,0,1.63.07c.13,0,.65-.14.66-.23a3,3,0,0,0,.05-.8,2,2,0,0,1,.11.85,1.07,1.07,0,0,1-.79.43A3.32,3.32,0,0,1,263,249.1Z" style="fill:#263238"></path><path d="M290.16,258.18c-1.06-.81-1.67-6.22-2-8.41s3.56-10.86,4.48-12.8a14.18,14.18,0,0,1,2.12,7.61C294.73,247.77,292.8,253.06,290.16,258.18Z" style="fill:#263238;opacity:0.2"></path><path d="M274.62,236a6.79,6.79,0,0,0,4.48,4.85,6.9,6.9,0,0,0,6.61-1.26c.05,0,.13,0,.08.08a6.83,6.83,0,0,1-6.85,1.71,7,7,0,0,1-4.48-5.34C274.44,235.91,274.6,235.87,274.62,236Z" style="fill:#263238"></path><path d="M288.46,224.25c3.46,1.85,5.69,5.42,5.76,8.46a7.56,7.56,0,0,1-1.59,4.75c0,.06-.16,0-.12-.08a8.36,8.36,0,0,0-.09-8.51,10.79,10.79,0,0,0-8-5.33,6.85,6.85,0,0,0-4.59,1c-.13.09-.35-.12-.23-.22C281.69,222.57,285.32,222.57,288.46,224.25Z" style="fill:#263238"></path><path d="M264.26,221.5a8.64,8.64,0,0,1,5.4-2.48c2.83-.24,5.16,1.19,7.44,2.66.07,0,0,.14-.06.1-2-1.25-4-2.39-6.37-2.39a8.57,8.57,0,0,0-5.39,1.91,8.3,8.3,0,0,0-1.61,10.75,8.43,8.43,0,0,0,5.62,3.61c.09,0,.09.16,0,.15a8.48,8.48,0,0,1-5-14.31Z" style="fill:#263238"></path><path d="M294.16,248.65s6.49-4.6,5.53-9.64c-.54-2.85-5.92-5.21-5.92-5.21a10.58,10.58,0,0,0-4-7c-3.88-3.2-10.38-3.26-10.38-3.26s-3-4.48-8-4.21c-7,.37-10.49,9-6.35,14.41,2.9,3.81,9.83,3,9.83,3,.47.32,4.05,6,10.24,3.36,0,0,1.75,4.4,5.57,3.86A5.11,5.11,0,0,0,294.16,248.65Z" style="fill:#263238"></path><path d="M285.83,258.46s6.21-4.49,8.39-2.08-3.93,9.93-7.5,10a3.4,3.4,0,0,1-3.71-3.22Z" style="fill: rgb(235, 148, 129);"></path><path d="M292.41,258.49a0,0,0,0,1,0,.09c-2.53.13-4.41,1.78-6,3.63a1.88,1.88,0,0,1,2.83.44c0,.06-.05.13-.1.09a2.09,2.09,0,0,0-2.42-.06,10,10,0,0,0-1.65,1.4c-.17.16-.5-.07-.34-.27l0-.05C285.71,260.92,289.28,257.72,292.41,258.49Z" style="fill:#263238"></path><path d="M285.38,285a86.65,86.65,0,0,1-8,5.76c-2.67,1.58-5.72,2.86-8.82,2.5s-5.8-1.56-6.14-5.38c-.26-3,.5-5.94,1.77-9.48.05-.17-.15-.25-.21-.08-1.66,4.56-3.89,11.7.05,14.22,4.4,2.82,9.61,1.34,13.66-1.26a44.59,44.59,0,0,0,7.8-6.19C285.5,285.05,285.43,285,285.38,285Z" style="fill:#263238"></path></g></svg>